<svg xmlns="http://www.w3.org/2000/svg" viewBox="0 0 171.55 27"><defs><style>.cls-1{fill:#fff;}</style></defs><title>NoCTA_Original_LogoAndTextOnly</title><g id="Layer_2" data-name="Layer 2"><g id="Layer_1-2" data-name="Layer 1"><path class="cls-1" d="M92.23,20.08,87.09,10h0v10H84.47V6.65h3.31l5.12,10h0v-10h2.58V20.08Z"/><path class="cls-1" d="M106.59,20.08V14.19H101.2v5.89H98.51V6.65h2.69v5.43h5.39V6.65h2.69V20.08Z"/><path class="cls-1" d="M112.42,17.37a6.49,6.49,0,0,0,3,.83c1,0,2.39-.5,2.39-1.74,0-1-.91-1.46-2.23-2-1.79-.69-3.66-1.44-3.66-4,0-2.89,2.17-4.1,4.71-4.1a10,10,0,0,1,3.2.48l-.25,2.21a7.07,7.07,0,0,0-2.73-.57c-1,0-2.12.46-2.12,1.86,0,1,1.15,1.41,2.27,1.85,1.81.67,3.62,1.5,3.62,4s-1.85,4.06-5.06,4.06a11.82,11.82,0,0,1-3.43-.52Z"/><path class="cls-1" d="M128.28,20.08V5.65h2.58V20.08Z"/><path class="cls-1" d="M138.12,20.31a4.89,4.89,0,0,1-5.18-5.12,5.19,5.19,0,1,1,10.37,0A4.89,4.89,0,0,1,138.12,20.31Zm2.5-5.42c0-1.58-.85-3-2.5-3s-2.49,1.39-2.49,3c0,2.09.81,3.42,2.49,3.42S140.62,17,140.62,14.89Z"/><path class="cls-1" d="M151.86,18.5h0a3.53,3.53,0,0,1-3.08,1.58c-2.73,0-4-2.08-4-5,0-2.39,1.23-5.14,4.2-5.14a3.3,3.3,0,0,1,3,1.58h0V10.17h2.47v9c0,3.35-1.73,5.19-5.2,5.19a8.68,8.68,0,0,1-3.46-.67l.21-2.19a7.3,7.3,0,0,0,2.91.86c2.42,0,3-1.56,3-3.61Zm0-3.48c0-1.52-.54-3.08-2.18-3.08s-2.29,1.33-2.29,3.14c0,1.35.72,3,2.2,3C151.24,18.08,151.86,16.62,151.86,15Z"/><path class="cls-1" d="M157.15,8.36V5.9h2.58V8.36Zm0,11.72V10.17h2.58v9.91Z"/><path class="cls-1" d="M169,20.08V14.52c0-1.48-.31-2.58-1.67-2.58-1.64,0-2.27,1.58-2.27,3.33v4.81h-2.58V10.17h2.44v1.35h0a3.69,3.69,0,0,1,3.25-1.58c2.27,0,3.37,1.56,3.37,3.89v6.25Z"/><path class="cls-1" d="M67.05,27V0H0V27ZM27,2.61,22.33,24.34H15.07L10.5,9.3h-.06l-3,15H1.89L6.56,2.61h7.28l4.48,15.07h.06L21.45,2.61Zm20.77,0L43.2,24.34H37.35L39.29,15H32.37l-1.94,9.31H24.58L29.12,2.61H35l-1.72,8.31h6.91l1.72-8.31Zm16.81.59L63.13,7.53a11,11,0,0,0-4.82-1c-2.31,0-4.19.34-4.19,2.09,0,3.08,8.48,1.93,8.48,8.53,0,6-5.6,7.56-10.67,7.56a24.58,24.58,0,0,1-6.76-1.12l1.38-4.42a11.37,11.37,0,0,0,5.38,1.25c1.81,0,4.66-.35,4.66-2.59,0-3.49-8.48-2.18-8.48-8.31,0-5.61,4.94-7.29,9.73-7.29a17.91,17.91,0,0,1,6.7,1Z"/></g></g></svg>