<svg xmlns="http://www.w3.org/2000/svg" viewBox="0 0 286 27"><defs><style>.cls-1{fill:#fff;}</style></defs><title>SignInWith_Original_LogoAndTextOnly</title><g id="Layer_2" data-name="Layer 2"><g id="Layer_1-2" data-name="Layer 1"><path class="cls-1" d="M84.63,17.37a6.49,6.49,0,0,0,3,.83c1,0,2.38-.5,2.38-1.73,0-1-.9-1.47-2.23-2-1.79-.69-3.65-1.44-3.65-4,0-2.89,2.17-4.1,4.71-4.1a10,10,0,0,1,3.19.48l-.25,2.21a7,7,0,0,0-2.73-.57A1.87,1.87,0,0,0,87,10.4c0,1,1.16,1.41,2.28,1.85,1.8.67,3.61,1.5,3.61,4S91,20.31,87.8,20.31a11.8,11.8,0,0,1-3.42-.52Z"/><path class="cls-1" d="M95.14,8.36V5.9h2.57V8.36Zm0,11.72V10.17h2.57v9.91Z"/><path class="cls-1" d="M107,18.5h0a3.52,3.52,0,0,1-3.07,1.58c-2.74,0-4-2.08-4-5,0-2.39,1.24-5.14,4.2-5.14a3.28,3.28,0,0,1,3,1.58h0V10.17h2.46v9c0,3.35-1.73,5.19-5.19,5.19a8.7,8.7,0,0,1-3.47-.67l.21-2.19a7.34,7.34,0,0,0,2.91.86c2.42,0,3-1.56,3-3.61ZM107,15c0-1.52-.54-3.08-2.17-3.08s-2.29,1.33-2.29,3.14c0,1.35.71,3,2.19,3C106.34,18.08,107,16.62,107,15Z"/><path class="cls-1" d="M118.71,20.08V14.52c0-1.48-.3-2.58-1.67-2.58-1.64,0-2.27,1.58-2.27,3.33v4.81h-2.58V10.17h2.44v1.35h0a3.7,3.7,0,0,1,3.25-1.58c2.27,0,3.37,1.56,3.37,3.89v6.25Z"/><path class="cls-1" d="M129.36,8.36V5.9h2.58V8.36Zm0,11.72V10.17h2.58v9.91Z"/><path class="cls-1" d="M141.18,20.08V14.52c0-1.48-.31-2.58-1.68-2.58-1.63,0-2.27,1.58-2.27,3.33v4.81h-2.58V10.17h2.45v1.35h0a3.71,3.71,0,0,1,3.26-1.58c2.27,0,3.36,1.56,3.36,3.89v6.25Z"/><path class="cls-1" d="M161.25,20.08l-2.16-7.56h0l-2.12,7.56H154l-3.35-9.91h2.73l2.19,7.33h0l2-7.33h3l2.15,7.33h0l2.06-7.33h2.46l-3,9.91Z"/><path class="cls-1" d="M168.93,8.36V5.9h2.58V8.36Zm0,11.72V10.17h2.58v9.91Z"/><path class="cls-1" d="M180.11,20.08a6.44,6.44,0,0,1-1.88.23,2.92,2.92,0,0,1-3.16-3.21v-5h-1.9V10.17h1.9v-2l2.58-.83v2.81h2.29v1.89h-2.29v4.6c0,1,.33,1.65,1.23,1.65A2.21,2.21,0,0,0,180,18Z"/><path class="cls-1" d="M188.24,20.08v-5.6c0-1.81-.54-2.54-1.68-2.54-1.52,0-2.27,1.39-2.27,3.35v4.79h-2.58V5.65h2.58v5.87h0a3.69,3.69,0,0,1,3.12-1.58c2.29,0,3.36,1.6,3.36,3.87v6.27Z"/><path class="cls-1" d="M206.67,20.08l-5.13-10h0v10h-2.58V6.65h3.31l5.12,10h0v-10H210V20.08Z"/><path class="cls-1" d="M221,20.08V14.19h-5.38v5.89H213V6.65h2.7v5.43H221V6.65h2.7V20.08Z"/><path class="cls-1" d="M226.87,17.37a6.49,6.49,0,0,0,3,.83c1,0,2.38-.5,2.38-1.73,0-1-.9-1.47-2.23-2-1.79-.69-3.65-1.44-3.65-4,0-2.89,2.17-4.1,4.71-4.1a10.07,10.07,0,0,1,3.2.48l-.25,2.21a7.08,7.08,0,0,0-2.74-.57,1.86,1.86,0,0,0-2.11,1.86c0,1,1.15,1.41,2.27,1.85,1.8.67,3.61,1.5,3.61,4s-1.84,4.06-5.06,4.06a11.8,11.8,0,0,1-3.42-.52Z"/><path class="cls-1" d="M242.73,20.08V5.65h2.58V20.08Z"/><path class="cls-1" d="M252.56,20.31a4.89,4.89,0,0,1-5.17-5.12,5.19,5.19,0,1,1,10.37,0A4.9,4.9,0,0,1,252.56,20.31Zm2.51-5.42c0-1.58-.85-3-2.51-3s-2.48,1.39-2.48,3c0,2.09.81,3.42,2.48,3.42S255.07,17,255.07,14.89Z"/><path class="cls-1" d="M266.31,18.5h0a3.53,3.53,0,0,1-3.08,1.58c-2.73,0-4-2.08-4-5,0-2.39,1.23-5.14,4.19-5.14a3.28,3.28,0,0,1,3,1.58h0V10.17h2.46v9c0,3.35-1.73,5.19-5.19,5.19a8.68,8.68,0,0,1-3.46-.67l.21-2.19a7.26,7.26,0,0,0,2.9.86c2.43,0,3-1.56,3-3.61Zm0-3.48c0-1.52-.54-3.08-2.18-3.08s-2.29,1.33-2.29,3.14c0,1.35.71,3,2.2,3C265.69,18.08,266.31,16.62,266.31,15Z"/><path class="cls-1" d="M271.6,8.36V5.9h2.58V8.36Zm0,11.72V10.17h2.58v9.91Z"/><path class="cls-1" d="M283.42,20.08V14.52c0-1.48-.31-2.58-1.68-2.58-1.63,0-2.27,1.58-2.27,3.33v4.81h-2.58V10.17h2.45v1.35h0a3.68,3.68,0,0,1,3.25-1.58c2.27,0,3.37,1.56,3.37,3.89v6.25Z"/><path class="cls-1" d="M67.05,27V0H0V27ZM27,2.61,22.33,24.34H15.07L10.5,9.3h-.06l-3,15H1.89L6.56,2.61h7.28l4.48,15.07h.06L21.45,2.61Zm20.77,0L43.2,24.34H37.35L39.29,15H32.37l-1.94,9.31H24.58L29.12,2.61H35l-1.72,8.31h6.91l1.72-8.31Zm16.81.59L63.13,7.53a11,11,0,0,0-4.82-1c-2.31,0-4.19.34-4.19,2.09,0,3.08,8.48,1.93,8.48,8.53,0,6-5.6,7.56-10.67,7.56a24.58,24.58,0,0,1-6.76-1.12l1.38-4.42a11.37,11.37,0,0,0,5.38,1.25c1.81,0,4.66-.35,4.66-2.59,0-3.49-8.48-2.18-8.48-8.31,0-5.61,4.94-7.29,9.73-7.29a17.91,17.91,0,0,1,6.7,1Z"/></g></g></svg>