<?xml version="1.0" encoding="UTF-8"?>
<svg width="25px" height="25px" viewBox="0 0 25 25" version="1.1" xmlns="http://www.w3.org/2000/svg" xmlns:xlink="http://www.w3.org/1999/xlink">
    <g id="Icon/Header/Help" stroke="none" stroke-width="1" fill="none" fill-rule="evenodd">
        <path d="M15.5881635,7.11330413 C14.571692,6.36080739 13.3004037,5.967552 12.0007028,6.00357296 C10.748996,5.95773469 9.52516929,6.35433583 8.57630849,7.11330413 C7.65292489,7.89781039 7.08877654,8.98098497 7,10.1398437 L7,10.3920553 L9.337285,10.6442669 L9.337285,10.3920553 C9.66341779,8.72745856 10.5331052,7.86993902 12.0007028,7.86993902 C12.6782008,7.86463706 13.3277198,8.120353 13.7944331,8.57613158 C14.2977994,8.93598089 14.5815475,9.50023942 14.5554097,10.0894014 C14.5601682,10.3714354 14.4852045,10.6497031 14.3379878,10.8964786 C14.032076,11.3556944 13.6463763,11.7647601 13.196523,12.1070944 L11.9463473,13.1159409 C11.6743507,13.410896 11.4374395,13.7322235 11.2397263,14.0743451 C11.0642541,14.4107563 10.9363656,14.7668012 10.859238,15.1336339 C10.7809356,15.6685332 10.744603,16.208004 10.7505271,16.7477884 L10.7505271,17 L13.0878121,17 L13.0878121,16.7477884 C13.0487708,16.1482922 13.1412289,15.5476787 13.3595894,14.982307 C13.7439745,14.4732936 14.20112,14.01512 14.718476,13.6203642 C15.4708425,13.0665053 16.0987411,12.3809816 16.5665619,11.6026711 C17.4050108,10.077144 16.9995234,8.21657118 15.5881635,7.11330413 Z" id="Path" fill="#FFFFFF"></path>
        <rect id="Rectangle" fill="#FFFFFF" x="11" y="19" width="3" height="2"></rect>
        <circle id="Oval" stroke="#FFFFFF" stroke-width="1.6" stroke-linejoin="round" cx="12.5" cy="12.5" r="11.5"></circle>
    </g>
</svg>
