<?xml version="1.0" encoding="UTF-8"?>
<svg width="142px" height="120px" viewBox="0 0 142 120" version="1.1" xmlns="http://www.w3.org/2000/svg" xmlns:xlink="http://www.w3.org/1999/xlink">
    <title>logout-svgrepo-com</title>
    <g id="Page-1" stroke="none" stroke-width="1" fill="none" fill-rule="evenodd">
        <g id="logout-svgrepo-com" transform="translate(71.000000, 60.000000) scale(-1, 1) translate(-71.000000, -60.000000) " fill="#000000" fill-rule="nonzero">
            <path d="M22.6189161,67.1245307 L99.3749172,67.1245307 C103.03373,67.1245307 106,64.1583592 106,60.4996688 C106,56.8409783 103.03373,53.8748068 99.3749172,53.8748068 L22.6189161,53.8748068 L31.1847065,45.3093019 C33.7720222,42.7220725 33.7720222,38.5276515 31.1847065,35.9404221 C28.5978325,33.3531926 24.40283,33.3531926 21.8155144,35.9404221 L1.94114926,55.8145664 C1.78612233,55.9695881 1.63948716,56.1321181 1.50080209,56.3017145 C1.440293,56.3754713 1.38773401,56.4536447 1.3307583,56.5291681 C1.25788239,56.6263328 1.18279812,56.7212891 1.11522227,56.8224287 C1.05338817,56.9147351 0.999945833,57.0105748 0.943411793,57.1050895 C0.889086114,57.1960709 0.832110401,57.2848441 0.782201444,57.3784754 C0.730084126,57.4756401 0.686358579,57.5754547 0.639541328,57.674386 C0.59360742,57.7711089 0.545465152,57.8665069 0.504389638,57.9654382 C0.464639141,58.0621612 0.431955399,58.1606508 0.397063297,58.2586988 C0.358637816,58.3646966 0.318003975,58.4693694 0.285320233,58.5775755 C0.255728197,58.6756234 0.234086259,58.7749964 0.209352617,58.8743693 C0.181527269,58.984342 0.150610216,59.093873 0.128526607,59.206054 C0.106001325,59.3204433 0.0923094872,59.4361576 0.0759676163,59.5514302 C0.0618341063,59.6499198 0.0428422022,59.7470844 0.0331254141,59.846899 C0.0119251491,60.0606612 0,60.2757484 0,60.490394 C0,60.4934856 0,60.4970188 0,60.5001104 C0,60.503202 0,60.5067353 0,60.5098269 C0,60.7249141 0.0119251491,60.9395596 0.0331254141,61.1537635 C0.0428422022,61.2522531 0.0613924341,61.3480927 0.0750842719,61.445699 C0.091867815,61.5622966 0.105559653,61.6788942 0.128526607,61.7946084 C0.150610216,61.9059061 0.181085597,62.0136705 0.208910945,62.1227599 C0.234086259,62.2230162 0.256169869,62.3241557 0.286203578,62.4235287 C0.318445647,62.5299681 0.358637816,62.6328743 0.39573828,62.7371055 C0.431513727,62.8369201 0.464197469,62.9371763 0.50483131,63.0352243 C0.545023479,63.1323889 0.592282404,63.2255786 0.637332967,63.320535 C0.685033563,63.4216745 0.730084126,63.5236974 0.783084789,63.6230704 C0.831668729,63.7136101 0.886877753,63.7997333 0.939436743,63.8876232 C0.9972958,63.9852295 1.05250482,64.0837191 1.11610562,64.1786754 C1.18058976,64.2753984 1.25258232,64.3659382 1.32192486,64.4591279 C1.38199227,64.5390679 1.43764297,64.6216579 1.50168544,64.6993896 C1.63374542,64.8601529 1.77375551,65.0142914 1.919949,65.1622466 C1.92701575,65.1693131 1.93275749,65.177263 1.93982425,65.1843295 L21.8150727,85.0593571 C23.1091722,86.3529718 24.8043101,87 26.4998896,87 C28.1950274,87 29.8910486,86.3529718 31.1842648,85.0597988 C33.7715805,82.4725693 33.7715805,78.2781484 31.1847065,75.6909189 L22.6189161,67.1245307 Z" id="XMLID_7_"></path>
            <path d="M135.318182,0 L50.6818182,0 C46.9916727,0 44,2.98487783 44,6.66664198 L44,33.3332099 C44,37.014974 46.9916727,39.9998519 50.6818182,39.9998519 C54.3719636,39.9998519 57.3636364,37.014974 57.3636364,33.3332099 L57.3636364,13.333284 L128.636364,13.333284 L128.636364,106.666716 L57.3636364,106.666716 L57.3636364,86.6663457 C57.3636364,82.9845815 54.3719636,79.9997037 50.6818182,79.9997037 C46.9916727,79.9997037 44,82.9845815 44,86.6663457 L44,113.333358 C44,117.015122 46.9916727,120 50.6818182,120 L135.318182,120 C139.008327,120 142,117.015122 142,113.333358 L142,6.66664198 C142,2.98487783 139.008327,0 135.318182,0 Z" id="XMLID_8_"></path>
        </g>
    </g>
</svg>