<?xml version="1.0" encoding="UTF-8"?>
<svg width="26px" height="26px" viewBox="0 0 26 26" version="1.1" xmlns="http://www.w3.org/2000/svg" xmlns:xlink="http://www.w3.org/1999/xlink">
    <g id="Symbols" stroke="none" stroke-width="1" fill="none" fill-rule="evenodd">
        <g id="App-header-v2-Copy" transform="translate(-326.000000, -10.000000)" fill="#FFFFFF" fill-rule="nonzero" stroke="#FFFFFF" stroke-width="0.7">
            <g id="Group-4-Copy" transform="translate(314.000000, 3.000000)">
                <path d="M26.5107026,32.6339286 L23.488848,32.6339286 C22.8852941,32.6339286 22.3854575,32.1816001 22.3259804,31.582172 L22.0161765,29.7257178 C21.4341095,29.5447537 20.8685866,29.3097047 20.328268,29.0255135 L18.773366,30.1359302 C18.5874592,30.2900152 18.3247549,30.3841737 18.0553922,30.3841737 C17.7430556,30.3841737 17.4497958,30.2623599 17.2287582,30.0413224 L15.0921977,27.9047211 C14.665482,27.4780054 14.6324346,26.8046394 15.0145425,26.3378501 L16.108415,24.8056606 C15.823366,24.264525 15.5887255,23.6985528 15.4082108,23.1181197 L13.524469,22.8037815 C12.9527369,22.7488796 12.5,22.2490021 12.5,21.6446312 L12.5,18.623226 C12.5,18.019672 12.9523284,17.5198354 13.5517565,17.459909 L15.4082108,17.1492472 C15.5895425,16.5663632 15.8245915,16.0008403 16.1080065,15.4621557 L14.9979984,13.9072537 C14.6319853,13.4631769 14.6650327,12.7898518 15.0921977,12.3635037 L17.2291667,10.2261263 C17.6410539,9.81509687 18.346201,9.780824 18.7948121,10.1476541 L20.329085,11.241976 C20.8673611,10.9581933 21.432884,10.7235528 22.0161765,10.5421802 L22.3296977,8.65884687 C22.3854984,8.086257 22.8857435,7.63392857 23.4892974,7.63392857 L26.5111111,7.63392857 C27.113848,7.63392857 27.6136846,8.08584851 27.6744281,8.68486811 L27.9846814,10.5421802 C28.5671569,10.7235119 29.1326797,10.9581933 29.6713644,11.241976 L31.2266748,10.1315593 C31.4121732,9.97788282 31.6749183,9.88409197 31.9441993,9.88409197 C32.2565359,9.88409197 32.5497958,10.005538 32.7704248,10.2261263 L34.9069853,12.3635037 C35.3333333,12.7885854 35.3675654,13.4615021 34.9862745,13.9287407 L33.8919935,15.4621965 C34.1761846,16.0008812 34.4104167,16.5664041 34.5917892,17.149288 L36.475531,17.4636671 C37.0480801,17.5198354 37.5,18.019672 37.5,18.623226 L37.5,21.6446312 C37.5,22.2490021 37.0476716,22.7484302 36.4473856,22.806641 L34.5917484,23.1168943 C34.4104167,23.7001867 34.1757353,24.266159 33.8919526,24.8048028 L35.0023693,26.3593371 C35.3679739,26.8050479 35.3336601,27.4788224 34.9065359,27.9043126 L32.770384,30.0404645 C32.3601716,30.4510854 31.6533497,30.4874008 31.2035131,30.1185282 L29.6713235,29.0250233 C29.1309641,29.3096639 28.565482,29.5447129 27.9846405,29.7252684 L27.6698529,31.6094188 C27.6136846,32.1816001 27.113848,32.6339286 26.5107026,32.6339286 Z M20.2984886,28.1257995 C20.3678922,28.1257995 20.4377042,28.1431197 20.5004902,28.178659 C21.1300654,28.5314776 21.8000817,28.8094596 22.4937092,29.0056606 C22.6473856,29.049043 22.7622141,29.1775152 22.7886438,29.3353175 L23.1443219,31.4735528 C23.1649918,31.6726541 23.314951,31.8077439 23.488848,31.8077439 L26.5107026,31.8077439 C26.6845997,31.8077439 26.8341503,31.6730626 26.8511029,31.5007995 L27.2117239,29.3353175 C27.2377451,29.1779237 27.352982,29.0494514 27.5066993,29.0060691 C28.1986111,28.8102358 28.8686683,28.5322129 29.498652,28.1790266 C29.6378676,28.1005544 29.8105801,28.1100724 29.9406863,28.2034139 L31.7049837,29.4637897 C31.8830474,29.6071312 32.0644199,29.5773518 32.1850082,29.457172 L34.3219771,27.3202031 C34.447549,27.1950805 34.4574346,26.9979809 34.345915,26.8612979 L33.0686275,25.0754318 C32.9752451,24.9452848 32.9661765,24.7730626 33.0442402,24.6330299 C33.397018,24.0059057 33.6746324,23.3358894 33.8704657,22.6410364 C33.913848,22.4869514 34.0422794,22.372123 34.2004902,22.3456933 L36.339134,21.9891573 C36.5382761,21.9684874 36.673366,21.8193861 36.673366,21.6454482 L36.673366,18.624043 C36.673366,18.4501459 36.5386846,18.3001867 36.3664216,18.2832341 L34.2009395,17.9230217 C34.0427288,17.896592 33.9146242,17.7817635 33.8708742,17.6276786 C33.6750408,16.9328256 33.397018,16.2627684 33.0446487,15.636543 C32.966585,15.4964694 32.9756944,15.3242063 33.0690359,15.1941001 L34.3302288,13.4289449 C34.457884,13.2711426 34.447549,13.0744923 34.3227941,12.9497374 L32.185866,10.8119106 C32.0656863,10.69169 31.858701,10.6813959 31.7281454,10.7883812 L29.9410948,12.0660773 C29.8109477,12.1594596 29.6382761,12.1685282 29.4991013,12.0904645 C28.8716095,11.7380952 28.2015114,11.4600724 27.5071078,11.263422 C27.3534314,11.2204482 27.2386029,11.0915675 27.2121324,10.9337652 L26.8560458,8.79557073 C26.8341503,8.59230275 26.6875,8.46015406 26.5107026,8.46015406 L23.488848,8.46015406 C23.3116422,8.46015406 23.1654003,8.59193511 23.1480392,8.76709851 L22.7886438,10.9321312 C22.7626225,11.0899335 22.6473856,11.2184057 22.4937092,11.261788 C21.7980392,11.4588469 21.127982,11.7364613 20.502165,12.0888305 C20.3617239,12.1669351 20.1894608,12.1578256 20.0597222,12.0644433 L18.2937092,10.8032505 C18.1160539,10.6611345 17.9339052,10.6896475 17.8136846,10.8106851 L15.6767565,12.9476541 C15.5520016,13.072409 15.5424837,13.2690593 15.6540441,13.4049662 L16.9309232,15.1924662 C17.0243056,15.3229809 17.0333742,15.4952439 16.9553105,15.634909 C16.6033497,16.2611753 16.3253268,16.9311916 16.128268,17.6264531 C16.0852941,17.7801296 15.9564134,17.8949988 15.7986111,17.9214286 L13.6604167,18.2779237 C13.4579657,18.2994106 13.3262255,18.4460609 13.3262255,18.6233077 L13.3262255,21.6447129 C13.3262255,21.8215103 13.457598,21.9677521 13.6323121,21.9846639 L15.7982026,22.3448763 C15.9560049,22.3709384 16.0844771,22.4861753 16.1278595,22.6402194 C16.3232435,23.331355 16.6012663,24.0018207 16.954902,24.6330299 C17.0330065,24.7726541 17.0238971,24.9445086 16.9305147,25.0746557 L15.6701389,26.8389939 C15.5412582,26.9976132 15.5511438,27.1942227 15.6763072,27.3194269 L17.8132761,29.4559874 C17.9347222,29.577025 18.1408905,29.5877684 18.2709967,29.4795168 L20.0580882,28.2026377 C20.1299428,28.1517799 20.2142157,28.1257995 20.2984886,28.1257995 Z M25.0004085,25.0787407 C22.2731209,25.0787407 20.0543709,22.8603992 20.0543709,20.1335201 C20.0543709,17.4062325 22.2731209,15.1874825 25.0004085,15.1874825 C27.7277369,15.1874825 29.9460376,17.4062325 29.9460376,20.1335201 C29.9456291,22.8599498 27.7272876,25.0787407 25.0004085,25.0787407 Z M25.0004085,16.0136671 C22.728799,16.0136671 20.8805556,17.8619106 20.8805556,20.1335201 C20.8805556,22.4047619 22.7287582,24.2525152 25.0004085,24.2525152 C27.2716503,24.2525152 29.1198529,22.4047619 29.1198529,20.1335201 C29.1194444,17.8618697 27.2716095,16.0136671 25.0004085,16.0136671 Z" id="Shape"></path>
            </g>
        </g>
    </g>
</svg>
