<svg xmlns="http://www.w3.org/2000/svg" viewBox="0 0 18 18">
  <rect x="2.5" y="5" width="3" height="3" rx="0.8874"
    style="fill:#425563"/><path d="M1.0027,1.2379h15.995A.9023.9023,0,0,1,17.9,2.14v.5977a0,0,0,0,1,0,0H.1a0,0,0,0,1,0,0V2.1406a.9027.9027,0,0,1,.9027-.9027Z" style="fill:#425563"/>
  <rect x="3.75" y="0.0879" width="1.5" height="3.9375" rx="0.75"
    style="fill:#425563"/>
  <rect x="12.75" y="0.0879" width="1.5" height="3.9375" rx="0.75"
    style="fill:#425563"/>
  <rect x="16.4" y="2.0901" width="1.5" height="13.9352" rx="0.5"
    style="fill:#425563"/>
  <rect x="0.1" y="2.1769" width="1.5" height="13.9352" rx="0.5"
    style="fill:#425563"/>
  <path d="M.9974,15.4H17.003a.897.897,0,0,1,.897.897V17.9a0,0,0,0,1,0,0H.1a0,0,0,0,1,0,0V16.2974A.8974.8974,0,0,1,.9974,15.4Z" transform="translate(18 33.3) rotate(180)"
    style="fill:#425563"/>
</svg>
